Coordinates
version=1
nRows=10
nColumns=63
inDegrees=yes

Units are S.I. units (second, meters, Newtons, ...)
If the header above contains a line with 'inDegrees', this indicates whether rotational values are in degrees (yes) or radians (no).

endheader
time	pelvis_tilt	pelvis_list	pelvis_rotation	pelvis_tx	pelvis_ty	pelvis_tz	hip_flexion_r	hip_adduction_r	hip_rotation_r	knee_angle_r	knee_angle_r_beta	ankle_angle_r	subtalar_angle_r	mtp_angle_r	hip_flexion_l	hip_adduction_l	hip_rotation_l	knee_angle_l	knee_angle_l_beta	ankle_angle_l	subtalar_angle_l	mtp_angle_l	L5_S1_Flex_Ext	L5_S1_Lat_Bending	L5_S1_axial_rotation	L4_L5_Flex_Ext	L4_L5_Lat_Bending	L4_L5_axial_rotation	L3_L4_Flex_Ext	L3_L4_Lat_Bending	L3_L4_axial_rotation	L2_L3_Flex_Ext	L2_L3_Lat_Bending	L2_L3_axial_rotation	L1_L2_Flex_Ext	L1_L2_Lat_Bending	L1_L2_axial_rotation	L1_T12_Flex_Ext	L1_T12_Lat_Bending	L1_T12_axial_rotation	Abs_r3	Abs_r2	Abs_r1	Abs_t1	Abs_t2	neck_flexion	neck_bending	neck_rotation	arm_flex_r	arm_add_r	arm_rot_r	elbow_flex_r	pro_sup_r	wrist_flex_r	wrist_dev_r	arm_flex_l	arm_add_l	arm_rot_l	elbow_flex_l	pro_sup_l	wrist_flex_l	wrist_dev_l
4.550000	1.479364	-8.121856	90.352321	0.323299	0.969718	0.341677	8.104850	3.275748	-20.740823	4.892906	0.085397	17.421151	5.728832	0.000000	9.630251	-2.896692	8.658615	8.012624	0.139847	21.895393	-17.070221	0.000000	0.491358	0.604028	0.285650	0.912501	0.803357	0.303503	0.807253	1.468633	0.303503	0.561573	1.468633	0.249944	0.456275	1.231733	0.232091	0.280762	0.935639	0.214238	3.509723	6.832881	1.588701	0.000000	0.000000	28.386084	-0.135985	3.212028	13.585926	-12.627840	78.636487	25.414494	33.636182	2.607369	2.646198	28.382022	7.430087	144.220767	6.011112	10.497656	-2.627860	-15.575462
4.566667	1.242977	-7.902268	90.494059	0.323694	0.970256	0.340666	7.816954	3.012537	-20.751001	4.993212	0.087148	17.137011	5.513572	0.000000	9.329196	-2.647033	8.999738	7.910526	0.138065	22.186704	-16.966437	0.000000	0.484127	0.569215	0.285597	0.899073	0.757056	0.303447	0.795373	1.383990	0.303447	0.553309	1.383990	0.249898	0.449561	1.160743	0.232048	0.276630	0.881714	0.214198	3.458073	6.439075	1.588407	0.000000	0.000000	28.381632	-0.090774	2.286413	12.701751	-11.761413	68.814808	28.949249	38.179927	2.666091	4.175892	27.132247	7.706849	135.871964	9.893829	16.616503	0.535339	-11.909190
4.583333	1.022809	-7.695249	90.570442	0.324255	0.970680	0.339621	7.547319	2.787884	-20.532998	5.138517	0.089684	16.804027	5.060781	0.000000	9.021256	-2.441617	9.206335	7.811764	0.136341	22.567176	-16.649539	0.000000	0.479469	0.535845	0.264219	0.890422	0.712674	0.280733	0.787720	1.302854	0.280733	0.547985	1.302854	0.231192	0.445235	1.092695	0.214678	0.273969	0.830024	0.198164	3.424799	6.061587	1.469507	0.000000	0.000000	28.378273	0.097383	1.590941	11.947116	-11.139063	60.115100	32.470323	42.449107	2.756762	5.623357	25.680902	7.233169	126.029470	14.440755	23.027607	3.693236	-7.845120
4.600000	0.824973	-7.511617	90.598875	0.324951	0.970970	0.338579	7.302586	2.607293	-20.122067	5.305342	0.092596	16.459263	4.414279	0.000000	8.725099	-2.277985	9.372086	7.725946	0.134843	22.971110	-16.277118	0.000000	0.478043	0.504971	0.222128	0.887774	0.671611	0.236011	0.785377	1.227785	0.236011	0.546356	1.227785	0.194362	0.443911	1.029736	0.180479	0.273154	0.782199	0.166596	3.414616	5.712327	1.235409	0.000000	0.000000	28.376028	0.436234	1.150807	11.333041	-10.730568	52.931106	35.884748	46.273743	2.903802	6.920764	24.098046	6.111046	115.063019	19.475373	29.700037	6.766720	-3.722015
4.616667	0.654399	-7.357262	90.589516	0.325746	0.971125	0.337573	7.087223	2.474000	-19.534864	5.472035	0.095505	16.135721	3.618328	0.000000	8.453077	-2.157528	9.506779	7.658319	0.133663	23.375526	-15.892990	0.000000	0.479703	0.477503	0.159378	0.890856	0.635079	0.169339	0.788104	1.161001	0.169339	0.548252	1.161001	0.139455	0.445452	0.973725	0.129494	0.274102	0.739652	0.119533	3.426469	5.401612	0.886411	0.000000	0.000000	28.375579	0.887567	0.927386	10.904569	-10.466398	47.885905	38.999246	49.446607	3.214922	8.019706	22.434903	4.488011	103.740765	24.690883	36.459382	9.659303	0.136667
4.633333	0.522764	-7.242513	90.545735	0.326645	0.971134	0.336587	6.903024	2.405293	-18.772505	5.603266	0.097795	15.867558	2.694157	0.000000	8.216428	-2.093961	9.588883	7.609973	0.132819	23.762626	-15.514547	0.000000	0.485316	0.455348	0.078112	0.901280	0.605613	0.082994	0.797325	1.107133	0.082994	0.554667	1.107133	0.068348	0.450664	0.928546	0.063466	0.277309	0.705334	0.058584	3.466562	5.150988	0.434435	0.000000	0.000000	28.376400	1.506712	1.021756	10.631126	-10.292958	45.402948	41.678555	51.770523	3.556087	8.859057	20.677668	2.492409	92.739920	29.834616	42.881833	12.217559	3.746186
4.650000	0.431991	-7.164304	90.477368	0.327588	0.971015	0.335673	6.758478	2.393866	-17.937945	5.701518	0.099510	15.704036	1.773332	0.000000	8.020530	-2.084879	9.620367	7.586698	0.132413	24.135010	-15.146049	0.000000	0.493822	0.438989	-0.016370	0.917078	0.583855	-0.017394	0.811301	1.067358	-0.017394	0.564390	1.067358	-0.014324	0.458564	0.895186	-0.013301	0.282170	0.679994	-0.012278	3.527324	4.965930	-0.091047	0.000000	0.000000	28.378838	2.193468	1.308520	10.539681	-10.137601	46.010350	43.683752	52.801226	4.109571	9.453694	18.974991	0.215937	82.630444	34.834033	48.959841	13.912073	6.842695
4.666667	0.388076	-7.120412	90.393169	0.328524	0.970782	0.334862	6.658635	2.439811	-17.065941	5.764311	0.100606	15.679208	0.897584	0.000000	7.870004	-2.131146	9.594937	7.591314	0.132493	24.478584	-14.791881	0.000000	0.504132	0.429963	-0.124386	0.936224	0.571851	-0.132160	0.828239	1.045412	-0.132160	0.576173	1.045412	-0.108838	0.468137	0.876780	-0.101064	0.288061	0.666012	-0.093290	3.600968	4.863826	-0.691798	0.000000	0.000000	28.382438	2.956151	1.822741	10.673944	-9.956158	49.368331	44.973152	52.637306	4.964134	9.719972	17.377611	-2.198881	73.666300	39.570843	54.902546	14.520814	9.351211
4.683333	0.398874	-7.098599	90.301682	0.329411	0.970463	0.334197	6.606568	2.534612	-16.406476	5.817100	0.101528	15.861865	0.392028	0.000000	7.761480	-2.236027	9.521017	7.627311	0.133122	24.798809	-14.445638	0.000000	0.514216	0.429201	-0.238848	0.954950	0.570837	-0.253776	0.844805	1.043559	-0.253776	0.587697	1.043559	-0.208992	0.477501	0.875227	-0.194064	0.293823	0.664832	-0.179136	3.672990	4.855208	-1.328402	0.000000	0.000000	28.386726	3.714944	2.476988	11.099590	-9.792461	54.363107	45.762438	51.011720	6.013240	9.917511	16.001171	-4.605570	66.313850	43.895966	60.370007	14.011905	11.233868
4.700000	0.493055	-7.100241	90.220894	0.330095	0.970052	0.333673	6.609561	2.695620	-15.975873	5.871332	0.102474	16.234847	0.225717	0.000000	7.702371	-2.414375	9.454206	7.691949	0.134250	25.099832	-14.147760	0.000000	0.524373	0.440852	-0.351395	0.973813	0.586334	-0.373357	0.861493	1.071888	-0.373357	0.599306	1.071888	-0.307470	0.486933	0.898986	-0.285508	0.299627	0.682880	-0.263546	3.745545	4.987010	-1.954351	0.000000	0.000000	28.391868	4.406530	3.187394	11.444758	-9.986250	56.882808	46.677363	51.307916	6.815949	10.462409	14.876320	-6.790642	60.652296	47.626278	65.298808	12.518837	12.357019
